<svg width="60" height="60" viewBox="0 0 60 60" fill="none" xmlns="http://www.w3.org/2000/svg">
<rect width="60" height="60" rx="30" fill="url(#paint0_linear)"/>
<path fill-rule="evenodd" clip-rule="evenodd" d="M29.5528 14.1056C29.8343 13.9648 30.1657 13.9648 30.4472 14.1056L45.4472 21.6056C45.786 21.775 46 22.1212 46 22.5C46 22.8788 45.786 23.225 45.4472 23.3944L39.7361 26.25L45.4472 29.1056C45.786 29.275 46 29.6212 46 30C46 30.3788 45.786 30.725 45.4472 30.8944L39.7361 33.75L45.4472 36.6056C45.786 36.775 46 37.1212 46 37.5C46 37.8788 45.786 38.225 45.4472 38.3944L30.4472 45.8944C30.1657 46.0352 29.8343 46.0352 29.5528 45.8944L14.5528 38.3944C14.214 38.225 14 37.8788 14 37.5C14 37.1212 14.214 36.775 14.5528 36.6056L20.2639 33.75L14.5528 30.8944C14.214 30.725 14 30.3788 14 30C14 29.6212 14.214 29.275 14.5528 29.1056L20.2639 26.25L14.5528 23.3944C14.214 23.225 14 22.8788 14 22.5C14 22.1212 14.214 21.775 14.5528 21.6056L29.5528 14.1056ZM22.9577 25.3608C22.9512 25.3575 22.9447 25.3542 22.9382 25.351L17.2361 22.5L30 16.118L42.7639 22.5L30 28.882L22.9577 25.3608ZM22.5 27.368L17.2361 30L30 36.382L37.0424 32.8608C37.0488 32.8575 37.0553 32.8542 37.0619 32.851L42.7639 30L37.5 27.368L30.4472 30.8944C30.1657 31.0352 29.8343 31.0352 29.5528 30.8944L22.5 27.368ZM37.5 34.868L30.4472 38.3944C30.1657 38.5352 29.8343 38.5352 29.5528 38.3944L22.5 34.868L17.2361 37.5L30 43.882L42.7639 37.5L37.5 34.868Z" fill="white"/>
<defs>
<linearGradient id="paint0_linear" x1="-9.71602e-07" y1="0.500001" x2="60" y2="60" gradientUnits="userSpaceOnUse">
<stop stop-color="#7E5CEF"/>
<stop offset="1" stop-color="#0ECAD4"/>
</linearGradient>
</defs>
</svg>
